# AST/ASF file generated using VICON BodyLanguage
# -----------------------------------------------
:version 1.10
:name VICON
:units
  mass 1.0
  length 0.45
  angle deg
:documentation
   .ast/.asf automatically generated from VICON data using
   VICON BodyBuilder and BodyLanguage model FoxedUp or BRILLIANT.MOD
:root
   order TX TY TZ RX RY RZ
   axis XYZ
   position 0 0 0  
   orientation 0 0 0 
:bonedata
  begin
     id 1 
     name lhipjoint
     direction 0.589753 -0.68606 0.426044 
     length 2.54082 
     axis 0 0 0  XYZ
  end
  begin
     id 2 
     name lfemur
     direction 0.34202 -0.939693 0  
     length 7.04539  
     axis 0 0 20  XYZ
    dof rx ry rz
    limits (-160.0 20.0)
           (-70.0 70.0)
           (-60.0 70.0)
  end
  begin
     id 3 
     name ltibia
     direction 0.34202 -0.939693 0   
     length 7.83772   
     axis 0 0 20   XYZ
    dof rx
    limits (-10.0 170.0)
  end
  begin
     id 4 
     name lfoot
     direction 0.0596604 -0.163915 0.984669   
     length 2.39542   
     axis -90 7.62852e-016 20   XYZ
    dof rx rz
    limits (-45.0 90.0)
           (-70.0 20.0)
  end
  begin
     id 5 
     name ltoes
     direction 1.53514e-011 -4.21954e-011 1   
     length 1.2047   
     axis -90 7.62852e-016 20   XYZ
    dof rx
    limits (-90.0 20.0)
  end
  begin
     id 6 
     name rhipjoint
     direction -0.580585 -0.69168 0.429534   
     length 2.52018  
     axis 0 0 0  XYZ 
  end
  begin
     id 7 
     name rfemur
     direction -0.34202 -0.939693 0   
     length 7.0101   
     axis 0 0 -20   XYZ
    dof rx ry rz
    limits (-160.0 20.0)
           (-70.0 70.0)
           (-70.0 60.0)
  end
  begin
     id 8 
     name rtibia
     direction -0.34202 -0.939693 0   
     length 7.70628   
     axis 0 0 -20   XYZ
    dof rx
    limits (-10.0 170.0)
 end
 begin
     id 9 
     name rfoot
     direction -0.0696237 -0.19129 0.979061   
     length 2.52466  
     axis -90 -7.62852e-016 -20   XYZ
    dof rx rz
    limits (-45.0 90.0)
           (-20.0 70.0)
  end
  begin
     id 10 
     name rtoes
     direction -1.53519e-011 -4.21793e-011 1   
     length 1.266   
     axis -90 -7.62852e-016 -20   XYZ
    dof rx
    limits (-90.0 20.0)
  end
  begin
     id 11 
     name lowerback
     direction 0.00381965 0.995707 -0.0924856   
     length 2.20825   
     axis 0 0 0   XYZ
    dof rx ry rz
    limits (-20.0 45.0)
           (-30.0 30.0)
           (-30.0 30.0)
  end
  begin
     id 12 
     name upperback
     direction -0.0139043 0.999634 -0.0231929   
     length 2.21517   
     axis 0 0 0   XYZ
    dof rx ry rz
    limits (-20.0 45.0)
           (-30.0 30.0)
           (-30.0 30.0)
  end
  begin
     id 13 
     name thorax
     direction -0.0143933 0.999691 0.0202892   
     length 2.22911   
     axis 0 0 0   XYZ
    dof rx ry rz
    limits (-20.0 45.0)
           (-30.0 30.0)
           (-30.0 30.0)
  end
  begin
     id 14 
     name lowerneck
     direction -0.0251153 0.981819 0.188153   
     length 1.61782   
     axis 0 0 0   XYZ
    dof rx ry rz
    limits (-20.0 45.0)
           (-30.0 30.0)
           (-30.0 30.0)
  end
  begin
     id 15 
     name upperneck
     direction 0.0563891 0.969357 -0.239095   
     length 1.64526   
     axis 0 0 0   XYZ
    dof rx ry rz
    limits (-20.0 45.0)
           (-30.0 30.0)
           (-30.0 30.0)
  end
  begin
     id 16
     name head
     direction 0.0208328 0.99459 -0.101773  
     length 1.67436  
     axis 0 0 0   XYZ
    dof rx ry rz
    limits (-20.0 45.0)
           (-30.0 30.0)
           (-30.0 30.0)
  end
  begin
     id 17 
     name lclavicle
     direction 0.917689 0.397224 0.00772059  
     length 3.31102  
     axis 0 0 0   XYZ
    dof ry rz
    limits (-20.0 10.0)
           (0.0 20.0)
  end
  begin
     id 18 
     name lhumerus
     direction 1 -4.4896e-011 2.32308e-027   
     length 5.25537   
     axis 180 -30 -90   XYZ
    dof rx ry rz
    limits (-60.0 90.0)
           (-90.0 90.0)
           (-90.0 90.0)
  end
  begin
     id 19
     name lradius
     direction 1 -4.49005e-011 -2.04271e-027   
     length 3.38855   
     axis 180 -30 -90   XYZ
    dof rx
    limits (-10.0 170.0)
  end
  begin
     id 20
     name lwrist
     direction 1 -4.48892e-011 2.56952e-028   
     length 1.69428   
     axis -5.12785e-016 90 90   XYZ
    dof ry
    limits (-180.0 0.0)
 end
  begin
     id 21 
     name lhand
     direction 1 -4.48966e-011 5.13905e-028   
     length 0.614516   
     axis -3.27915e-016 90 90   XYZ
    dof rx rz
    limits (-90.0 90.0)
           (-45.0 45.0)
  end
  begin
     id 22 
     name lfingers
     direction 1 -4.48979e-011 1.02781e-027   
     length 0.495439   
     axis -6.5583e-016 90 90   XYZ
    dof rx
    limits (0.0 90.0)
  end
  begin
     id 23
     name lthumb
     direction 0.707107 -6.35001e-011 0.707107   
     length 0.711354   
     axis -90 45 2.85299e-015   XYZ
    dof rx rz
    limits (-45.0 45.0)
           (-45.0 45.0)
  end
  begin
     id 24 
     name rclavicle
     direction -0.938556 0.342765 -0.0403177   
     length 3.27019  
     axis 0 0 0   XYZ 
    dof ry rz
    limits (-10.0 20.0)
           (-20.0 0.0)
  end
  begin
     id 25 
     name rhumerus
     direction -1 -4.48966e-011 2.52291e-027  
     length 5.38183   
     axis 180 30 90   XYZ
    dof rx ry rz
    limits (-90.0 60.0)
           (-90.0 90.0)
           (-90.0 90.0)
  end
  begin
     id 26 
     name rradius
     direction -1 -4.4896e-011 1.5797e-027   
     length 3.16988   
     axis 180 30 90   XYZ
    dof rx
    limits (-10.0 170.0)
  end
  begin
     id 27 
     name rwrist
     direction -1 -4.48947e-011 2.56952e-028   
     length 1.58494   
     axis -5.12785e-016 -90 -90   XYZ
    dof ry
    limits (-180.0 0.0)
  end
  begin
     id 28
     name rhand
     direction -1 -4.49098e-011 5.13905e-028   
     length 0.637679   
     axis -3.27915e-016 -90 -90   XYZ
    dof rx rz
    limits (-90.0 90.0)
           (-45.0 45.0)
  end
  begin
     id 29
     name rfingers
     direction -1 -4.49026e-011 1.02781e-027   
     length 0.514113   
     axis -6.5583e-016 -90 -90   XYZ
    dof rx
    limits (0.0 90.0)
  end
  begin
     id 30
     name rthumb
     direction -0.707107 -6.3491e-011 0.707107   
     length 0.738167   
     axis -90 -45 -2.85299e-015   XYZ
    dof rx rz
    limits (-45.0 45.0)
           (-45.0 45.0)
  end
:hierarchy
  begin
    root lhipjoint rhipjoint lowerback
    lhipjoint lfemur
    lfemur ltibia
    ltibia lfoot
    lfoot ltoes
    rhipjoint rfemur
    rfemur rtibia
    rtibia rfoot
    rfoot rtoes
    lowerback upperback
    upperback thorax
    thorax lowerneck lclavicle rclavicle
    lowerneck upperneck
    upperneck head
    lclavicle lhumerus
    lhumerus lradius
    lradius lwrist
    lwrist lhand lthumb
    lhand lfingers
    rclavicle rhumerus
    rhumerus rradius
    rradius rwrist
    rwrist rhand rthumb
    rhand rfingers
  end

#!OML:ASF H:\Swim\Project 1\Capture day 1\Session 1\swimmer.ASF
:FULLY-SPECIFIED
:DEGREES
1955
root 3.77354 17.2268 -21.2516 92.0005 -9.39694 19.3878
lowerback 5.84528 -0.572291 -12.854
upperback -4.61325 -2.41493 -6.15027
thorax -8.05806 -0.625812 0.888628
lowerneck 3.14338 -13.8984 -17.5805
upperneck -7.35651 -19.0213 10.2825
head -0.0879727 -9.47739 5.51113
rclavicle -5.08889e-014 3.18055e-015
rhumerus 5.00595 12.084 -46.7028
rradius 43.5194
rwrist -234.839
rhand -20.8955 1.22549
rfingers 7.12502
rthumb 5.47525 -28.6838
lclavicle -5.08889e-014 3.18055e-015
lhumerus 48.9095 -45.5068 29.5674
lradius 51.0247
lwrist 52.0672
lhand -5.3326 16.7791
lfingers 7.12502
lthumb 20.4738 45.7196
rfemur -42.2554 -18.2577 10.3821
rtibia 86.5795
rfoot 7.43995 -2.96049
rtoes 20.0644
lfemur -34.736 -23.9894 -27.9132
ltibia 36.8015
lfoot 20.5764 -5.69468
ltoes -0.83126
1956
root 3.78522 17.2423 -21.2313 91.4128 -9.31209 19.666
lowerback 6.17552 -0.654042 -12.6512
upperback -4.4009 -2.54223 -6.17369
thorax -8.0077 -0.7094 0.779026
lowerneck 3.12274 -13.8496 -17.7308
upperneck -6.83506 -18.9624 10.0015
head 0.0454356 -9.44229 5.4264
rclavicle -3.18055e-015 -6.83819e-014
rhumerus 5.39388 12.3596 -46.7906
rradius 43.1978
rwrist -234.864
rhand -20.6981 1.2329
rfingers 7.12502
rthumb 5.66585 -28.6713
lclavicle -3.18055e-015 -6.83819e-014
lhumerus 48.9147 -45.5152 29.1496
lradius 51.4548
lwrist 51.7778
lhand -5.21365 16.6952
lfingers 7.12502
lthumb 20.5881 45.6234
rfemur -41.0046 -19.3526 10.1051
rtibia 87.9132
rfoot 7.65571 -2.60374
rtoes 20.7784
lfemur -34.0742 -24.122 -28.0216
ltibia 36.8128
lfoot 20.6927 -5.61365
ltoes -1.5503
1957
root 3.79845 17.2574 -21.2118 90.8358 -9.21939 19.9766
lowerback 6.4974 -0.749715 -12.4246
upperback -4.19996 -2.68459 -6.1981
thorax -7.96552 -0.800437 0.657591
lowerneck 3.07251 -13.8013 -17.8566
upperneck -6.30844 -18.8945 9.7638
head 0.187078 -9.40582 5.34908
rclavicle 4.13472e-014 5.56597e-014
rhumerus 5.7696 12.7004 -46.8522
rradius 42.871
rwrist -234.9
rhand -20.4654 1.24163
rfingers 7.12502
rthumb 5.89051 -28.6565
lclavicle 4.13472e-014 5.56597e-014
lhumerus 48.9004 -45.5551 28.7619
lradius 51.8527
lwrist 51.3658
lhand -5.2584 16.5804
lfingers 7.12502
lthumb 20.5451 45.5133
rfemur -39.6601 -20.5068 9.75101
rtibia 89.1625
rfoot 7.87692 -2.21244
rtoes 21.3644
lfemur -33.434 -24.2912 -28.1253
ltibia 36.8403
lfoot 20.8661 -5.51482
ltoes -1.93805
1958
root 3.81285 17.272 -21.1933 90.2789 -9.12084 20.3132
lowerback 6.80664 -0.858183 -12.1798
upperback -4.01388 -2.84068 -6.22492
thorax -7.93327 -0.897829 0.525465
lowerneck 2.99909 -13.7568 -17.9706
upperneck -5.79139 -18.8242 9.58387
head 0.334913 -9.37093 5.28562
rclavicle 2.54444e-014 -1.82882e-014
rhumerus 6.13142 13.1016 -46.8865
rradius 42.538
rwrist -234.945
rhand -20.2367 1.27012
rfingers 7.12502
rthumb 6.11134 -28.6217
lclavicle 2.54444e-014 -1.82882e-014
lhumerus 48.8606 -45.611 28.4308
lradius 52.1889
lwrist 50.9203
lhand -5.40808 16.4802
lfingers 7.12502
lthumb 20.4013 45.4285
rfemur -38.2269 -21.6935 9.31667
rtibia 90.3148
rfoot 8.12732 -1.77462
rtoes 21.7098
lfemur -32.8302 -24.4879 -28.2251
ltibia 36.8876
lfoot 21.093 -5.42773
ltoes -2.05435
1959
root 3.82791 17.2861 -21.1772 89.7641 -9.02154 20.6592
lowerback 7.08304 -0.978063 -11.9322
upperback -3.85091 -3.00759 -6.25263
thorax -7.90825 -0.999242 0.39179
lowerneck 2.90411 -13.7192 -18.0743
upperneck -5.27736 -18.7573 9.42514
head 0.487355 -9.33902 5.22542
rclavicle 6.04305e-014 -1.55052e-014
rhumerus 6.47689 13.5309 -46.917
rradius 42.1948
rwrist -234.954
rhand -20.0236 1.31263
rfingers 7.12502
rthumb 6.317 -28.5732
lclavicle 6.04305e-014 -1.55052e-014
lhumerus 48.8043 -45.7018 28.1329
lradius 52.455
lwrist 50.4472
lhand -5.73919 16.3714
lfingers 7.12502
lthumb 20.0831 45.3535
rfemur -36.7456 -22.8812 8.8102
rtibia 91.376
rfoot 8.40966 -1.30133
rtoes 21.8374
lfemur -32.2801 -24.7092 -28.3047
ltibia 36.9503
lfoot 21.4631 -5.26201
ltoes -1.24792
1960
root 3.84314 17.2999 -21.1635 89.2855 -8.92236 21.0066
lowerback 7.33767 -1.1026 -11.6919
upperback -3.71085 -3.17937 -6.28066
thorax -7.89702 -1.10101 0.262091
lowerneck 2.75999 -13.7059 -18.1392
upperneck -4.71931 -18.713 9.21046
head 0.654441 -9.31847 5.13734
rclavicle 0 5.36719e-014
rhumerus 6.79219 13.935 -46.9688
rradius 41.8322
rwrist -234.904
rhand -19.8692 1.37586
rfingers 7.12502
rthumb 6.46613 -28.5054
lclavicle 0 5.36719e-014
lhumerus 48.7143 -45.8083 27.9138
lradius 52.6434
lwrist 50.0659
lhand -6.15729 16.3116
lfingers 7.12502
lthumb 19.6812 45.3353
rfemur -35.2109 -24.0401 8.2368
rtibia 92.3368
rfoot 8.69855 -0.801934
rtoes 21.768
lfemur -31.7751 -24.9407 -28.3678
ltibia 37.027
lfoot 21.822 -5.02383
ltoes -0.290725
1961
root 3.85813 17.3136 -21.152 88.8423 -8.82682 21.3479
lowerback 7.57424 -1.22798 -11.4698
upperback -3.59317 -3.35271 -6.30746
thorax -7.90084 -1.20095 0.143594
lowerneck 2.58039 -13.7152 -18.1529
upperneck -4.14276 -18.6906 8.93495
head 0.824887 -9.30887 5.02094
rclavicle 1.27222e-014 4.53229e-014
rhumerus 7.07653 14.3947 -47.0008
rradius 41.4651
rwrist -234.886
rhand -19.7178 1.41698
rfingers 7.12502
rthumb 6.61224 -28.4598
lclavicle 1.27222e-014 4.53229e-014
lhumerus 48.6033 -45.9406 27.7525
lradius 52.7677
lwrist 49.8056
lhand -6.70033 16.2798
lfingers 7.12502
lthumb 19.159 45.3561
rfemur -33.6378 -25.1533 7.60558
rtibia 93.1976
rfoot 8.95472 -0.242009
rtoes 21.431
lfemur -31.3112 -25.173 -28.4182
ltibia 37.1113
lfoot 22.1387 -4.71963
ltoes 0.721606
1962
root 3.87264 17.3271 -21.141 88.4283 -8.72505 21.6816
lowerback 7.7984 -1.35184 -11.2603
upperback -3.49279 -3.52405 -6.32882
thorax -7.91735 -1.2979 0.0375621
lowerneck 2.37239 -13.7452 -18.1476
upperneck -3.55038 -18.6888 8.61193
head 1.00084 -9.30956 4.88465
rclavicle 3.18055e-015 -2.38542e-015
rhumerus 7.33662 14.88 -47.0237
rradius 41.0824
rwrist -234.906
rhand -19.5663 1.44635
rfingers 7.12502
rthumb 6.75851 -28.4258
lclavicle 3.18055e-015 -2.38542e-015
lhumerus 48.4743 -46.0983 27.6422
lradius 52.85
lwrist 49.6778
lhand -7.36547 16.3006
lfingers 7.12502
lthumb 18.5193 45.4391
rfemur -32.0195 -26.2056 6.93931
rtibia 93.9411
rfoot 9.16861 0.378566
rtoes 20.8318
lfemur -30.8866 -25.3917 -28.4542
ltibia 37.2049
lfoot 22.26 -4.40762
ltoes 0.86353
1963
root 3.88675 17.3407 -21.1309 88.0466 -8.61588 22.013
lowerback 8.00781 -1.47298 -11.0616
upperback -3.40814 -3.69107 -6.3443
thorax -7.94345 -1.39106 -0.0569132
lowerneck 2.14011 -13.7966 -18.0819
upperneck -2.98726 -18.7089 8.26502
head 1.16723 -9.3217 4.73244
rclavicle 2.54444e-014 -8.54774e-014
rhumerus 7.55361 15.2282 -47.1308
rradius 40.6703
rwrist -234.832
rhand -19.4328 1.4551
rfingers 7.12502
rthumb 6.88735 -28.4129
lclavicle 2.54444e-014 -8.54774e-014
lhumerus 48.3346 -46.2915 27.5758
lradius 52.9063
lwrist 49.6463
lhand -8.15597 16.3383
lfingers 7.12502
lthumb 17.7588 45.5473
rfemur -30.3623 -27.2042 6.2458
rtibia 94.5599
rfoot 9.29418 1.01657
rtoes 20.0523
lfemur -30.5056 -25.5953 -28.4744
ltibia 37.3075
lfoot 22.2255 -4.09301
ltoes 0.250019
1964
root 3.90054 17.3541 -21.1198 87.7034 -8.49389 22.3449
lowerback 8.19416 -1.59198 -10.8664
upperback -3.33666 -3.85197 -6.35077
thorax -7.97142 -1.48036 -0.140947
lowerneck 1.91115 -13.8617 -17.9968
upperneck -2.50588 -18.7474 7.97389
head 1.31513 -9.34361 4.59644
rclavicle -4.77083e-014 9.14409e-014
rhumerus 7.73398 15.4736 -47.2816
rradius 40.2419
rwrist -234.745
rhand -19.3158 1.45108
rfingers 7.12502
rthumb 7.0003 -28.4132
lclavicle -4.77083e-014 9.14409e-014
lhumerus 48.1474 -46.4777 27.6162
lradius 52.9521
lwrist 49.7633
lhand -8.90404 16.4386
lfingers 7.12502
lthumb 17.0388 45.7114
rfemur -28.6681 -28.1517 5.54468
rtibia 95.0327
rfoot 9.34852 1.6506
rtoes 19.1439
lfemur -30.1836 -25.7736 -28.4771
ltibia 37.4226
lfoot 22.0936 -3.84694
ltoes -0.949976
